<?xml version="1.0" standalone="no"?>
<!DOCTYPE svg PUBLIC "-//W3C//DTD SVG 20010904//EN"
 "http://www.w3.org/TR/2001/REC-SVG-20010904/DTD/svg10.dtd">
<svg version="1.0" xmlns="http://www.w3.org/2000/svg"
 width="5333.000000pt" height="2667.000000pt" viewBox="0 0 5333.000000 2667.000000"
 preserveAspectRatio="xMidYMid meet">

<g transform="translate(0.000000,2667.000000) scale(0.100000,-0.100000)"
fill="#000000" stroke="black" stroke-width="1px" >
<path d="M27815 26062 c-79 -24 -130 -51 -196 -105 -652 -529 -2001 -1241
-3224 -1702 -990 -373 -1777 -592 -4035 -1125 -2767 -654 -3662 -951 -5250
-1746 -1461 -732 -2355 -1351 -3489 -2418 -1287 -1211 -2069 -2595 -2270
-4021 -39 -276 -46 -384 -46 -730 1 -365 13 -532 61 -813 98 -582 338 -1117
679 -1513 166 -191 532 -546 819 -793 343 -294 525 -420 825 -571 339 -170
672 -266 1121 -322 204 -25 899 -25 1135 0 609 66 1107 196 1601 418 303 136
718 351 895 464 87 56 119 70 119 51 0 -15 -132 -210 -313 -460 -738 -1022
-2148 -2914 -2457 -3296 -464 -573 -1823 -1946 -2530 -2556 -58 -50 -159 -134
-225 -186 -1012 -799 -2030 -1374 -3002 -1698 -665 -220 -1185 -300 -1965
-300 -362 0 -537 10 -786 46 -816 116 -1618 424 -2155 827 -265 200 -449 391
-602 627 -282 437 -432 854 -497 1380 -20 161 -17 754 5 947 52 456 154 784
388 1243 493 966 1417 1693 2504 1970 299 76 570 110 886 110 574 0 1011 -92
1462 -309 210 -101 363 -208 526 -365 242 -236 406 -473 726 -1056 120 -219
221 -377 315 -493 67 -84 456 -457 475 -457 27 0 81 96 141 251 250 647 82
1432 -473 2216 -253 358 -980 1187 -1271 1449 -260 235 -442 341 -782 452
-297 98 -756 219 -950 251 -757 123 -1765 35 -2564 -225 -573 -187 -1113 -497
-1601 -919 -164 -142 -449 -432 -584 -595 -643 -771 -1074 -1735 -1177 -2632
-21 -189 -31 -903 -15 -1120 45 -601 174 -1081 441 -1649 247 -523 256 -544
281 -673 23 -123 157 -332 361 -563 184 -210 629 -633 923 -878 1049 -876
2900 -1658 4280 -1810 629 -69 1612 -36 2270 75 389 66 972 230 1435 402 1828
681 3535 1960 5301 3973 516 588 1201 1437 1984 2460 341 445 1277 1694 1627
2170 2077 2828 4031 5725 7033 10430 851 1333 1401 2184 1734 2680 370 551
465 695 608 923 354 565 560 960 618 1183 9 35 17 94 17 132 0 132 -71 238
-376 566 -209 225 -370 379 -416 399 -56 24 -269 26 -345 4z m-5456 -5746 c10
-11 10 -20 0 -38 -83 -158 -2408 -3980 -3344 -5499 -408 -662 -662 -1058 -697
-1086 -12 -11 -14 -2 -14 60 1 87 -18 131 -108 251 -60 80 -514 549 -526 544
-4 -2 -112 -115 -242 -253 -379 -402 -719 -707 -1143 -1023 -717 -536 -1473
-918 -2010 -1017 -214 -39 -353 -50 -630 -50 -277 0 -373 9 -540 50 -291 72
-772 306 -942 459 -88 80 -190 276 -237 456 -51 200 -61 327 -61 795 0 543 9
615 126 959 444 1306 1556 2494 3174 3391 1044 579 2403 1057 4060 1429 768
172 2458 499 2925 565 41 6 86 13 100 15 58 8 98 5 109 -8z" stroke-width="1px"/>

<path d="M30843 16028 c-24 -5 -67 -26 -97 -46 -69 -46 -284 -240 -290 -261
-3 -9 -62 -288 -131 -621 -329 -1583 -441 -1976 -785 -2760 -283 -645 -540
-1045 -1059 -1649 -429 -500 -1281 -1418 -1542 -1661 -226 -210 -316 -272
-614 -415 -592 -286 -1258 -517 -1685 -584 -132 -21 -406 -33 -590 -27 -583
21 -973 111 -1142 264 -77 69 -120 196 -138 404 -12 149 -32 569 -27 575 2 2
53 -30 113 -71 185 -125 325 -185 517 -221 227 -42 694 -35 1027 16 990 151
1895 684 2548 1501 645 807 918 1618 781 2324 -45 233 -158 505 -281 676 -301
416 -938 1033 -1203 1166 -385 192 -883 237 -1385 125 -515 -114 -1072 -406
-1670 -876 -1059 -833 -1890 -1851 -2454 -3007 -385 -791 -562 -1549 -517
-2215 55 -789 227 -1142 839 -1719 592 -558 923 -765 1362 -855 216 -44 345
-53 834 -58 727 -8 1029 19 1596 143 490 108 940 235 1316 373 463 169 745
293 1367 603 241 120 441 218 445 218 4 0 41 -41 82 -92 219 -269 360 -409
685 -685 530 -448 713 -561 1098 -677 342 -103 666 -146 1107 -146 281 0 423
8 690 41 1009 122 1906 438 2795 982 183 112 407 265 645 442 268 199 313 228
321 212 3 -6 9 -59 13 -115 8 -134 31 -245 63 -303 64 -119 567 -617 779 -772
150 -109 347 -143 764 -134 409 9 750 63 1095 174 375 120 858 322 1363 568
l263 129 57 -55 c31 -30 130 -125 218 -211 427 -411 592 -534 780 -582 209
-53 644 -41 1063 30 293 49 673 146 941 239 251 88 650 263 1044 457 282 140
397 203 648 354 l187 112 90 -111 c106 -132 245 -271 590 -586 293 -269 361
-325 526 -433 352 -232 780 -374 1295 -430 194 -21 706 -16 950 10 478 52 995
153 1390 272 883 269 1971 909 2821 1660 193 172 491 476 610 625 299 373 409
659 315 819 -41 71 -114 156 -299 354 -189 202 -327 329 -410 380 -74 45 -175
65 -308 60 -100 -3 -111 -6 -180 -41 -95 -48 -247 -163 -716 -539 -661 -530
-723 -579 -896 -710 -93 -70 -174 -125 -178 -122 -16 10 -27 80 -33 214 -17
340 -98 747 -361 1798 -73 296 -151 618 -171 717 -38 177 -39 184 -39 400 0
232 13 395 46 560 43 216 97 357 325 853 85 183 154 336 154 341 0 20 -354
402 -430 464 -146 118 -221 146 -497 187 -78 11 -195 36 -260 54 l-118 33 -6
289 c-6 310 -14 373 -65 502 -78 197 -220 377 -654 830 l-242 253 -207 -3
c-187 -3 -210 -5 -254 -25 -61 -28 -139 -89 -255 -200 l-92 -88 -126 -605
c-148 -714 -226 -1067 -300 -1360 -177 -694 -350 -1167 -630 -1720 -340 -674
-511 -904 -1403 -1895 -399 -442 -607 -663 -940 -995 -392 -392 -589 -564
-786 -687 -71 -45 -324 -167 -331 -161 -3 3 6 29 21 57 82 162 658 1082 1235
1971 1306 2012 1819 2884 1881 3194 11 53 10 57 -21 113 -115 204 -576 702
-767 829 -67 44 -162 69 -332 84 -174 16 -513 8 -594 -14 -157 -43 -272 -135
-452 -361 -262 -329 -1162 -1701 -1785 -2720 -567 -930 -814 -1290 -1117
-1635 -381 -433 -786 -724 -1678 -1206 -279 -150 -623 -314 -660 -314 -15 0 1
48 43 131 129 250 503 847 1476 2358 906 1406 1269 2003 1448 2379 106 222
144 375 119 469 -25 90 -148 241 -415 509 -180 180 -296 279 -377 319 -128 65
-366 107 -604 107 -169 0 -264 -16 -346 -57 -294 -147 -744 -703 -1359 -1680
-362 -575 -725 -1198 -1310 -2245 -320 -573 -542 -963 -596 -1047 -20 -31 -41
-53 -51 -53 -35 0 -81 39 -203 175 -222 245 -318 295 -561 295 -187 0 -189 -1
-1059 -700 -633 -508 -852 -679 -911 -711 -30 -16 -39 24 -49 212 -20 356 -86
690 -355 1779 -223 904 -236 982 -215 1290 33 490 69 609 389 1298 l141 303
-154 172 c-183 206 -274 293 -371 356 -92 60 -173 86 -354 112 -122 17 -397
79 -423 95 -4 3 -8 96 -8 207 -1 326 -19 462 -82 610 -81 191 -204 344 -652
814 l-231 243 -190 -1 c-104 -1 -209 -5 -232 -11z m-4923 -3304 c43 -15 57
-25 64 -47 24 -68 -50 -436 -127 -630 -69 -174 -264 -425 -528 -682 -494 -479
-1158 -842 -1779 -971 -142 -29 -369 -56 -441 -52 -65 4 -71 16 -39 91 139
328 763 1166 1173 1578 367 369 844 671 1132 718 119 19 125 19 310 16 143 -2
191 -7 235 -21z m5085 -2200 c104 -518 167 -814 222 -1024 19 -74 45 -177 59
-229 42 -161 55 -296 61 -616 8 -439 -11 -602 -92 -770 -46 -96 -128 -200
-230 -293 -228 -209 -679 -389 -1048 -420 -141 -12 -276 0 -336 30 -45 23 -46
24 -44 70 2 84 82 223 278 488 228 309 315 485 315 638 0 58 -22 151 -50 217
-37 86 -144 236 -251 350 -119 128 -179 214 -179 259 0 42 82 185 197 344 264
364 463 657 687 1012 220 346 297 456 308 437 4 -9 51 -230 103 -493z m16675
-44 c107 -536 166 -803 235 -1060 65 -241 83 -360 97 -647 13 -272 2 -556 -26
-700 -33 -162 -104 -288 -244 -430 -216 -220 -596 -396 -987 -458 -192 -31
-424 -16 -476 31 -18 16 -20 27 -16 72 9 81 99 234 299 502 214 288 292 453
291 610 -2 172 -89 339 -291 555 -119 128 -186 224 -186 269 0 57 76 178 358
568 115 160 404 593 586 881 80 125 167 258 194 295 l50 67 8 -30 c5 -17 53
-253 108 -525z"/>
</g>
</svg>
